<mxfile host="app.diagrams.net" modified="2021-03-23T10:46:02.359Z" agent="5.0 (Windows NT 10.0; Win64; x64) AppleWebKit/537.36 (KHTML, like Gecko) Chrome/89.0.4389.90 Safari/537.36" etag="OdbSIKLnbdfRjHBey6vH" version="14.5.0" type="github">
  <diagram name="Page-1" id="fc2ac565-0d4e-3f0d-88b0-a54af1634ed7">
    <mxGraphModel dx="1422" dy="794" grid="1" gridSize="10" guides="1" tooltips="1" connect="0" arrows="1" fold="1" page="1" pageScale="1.5" pageWidth="1169" pageHeight="827" background="#ffffff" math="0" shadow="0">
      <root>
        <mxCell id="0" style=";html=1;" />
        <mxCell id="1" style=";html=1;" parent="0" />
        <mxCell id="75" value="Term 1 - Week 2020.10.12" style="align=left;strokeColor=#CCCCCC;html=1;" parent="1" vertex="1">
          <mxGeometry x="430" y="150" width="187" height="20" as="geometry" />
        </mxCell>
        <mxCell id="80" value="Term 1 - Week 2020.10.19" style="align=left;strokeColor=#CCCCCC;html=1;" parent="1" vertex="1">
          <mxGeometry x="430" y="170" width="187" height="20" as="geometry" />
        </mxCell>
        <mxCell id="85" value="Term 1 - Week 2020.10.26" style="align=left;strokeColor=#CCCCCC;html=1;" parent="1" vertex="1">
          <mxGeometry x="430" y="190" width="187" height="20" as="geometry" />
        </mxCell>
        <mxCell id="90" value="Term 1 - Week 2020.11.2" style="align=left;strokeColor=#CCCCCC;html=1;" parent="1" vertex="1">
          <mxGeometry x="430" y="210" width="187" height="20" as="geometry" />
        </mxCell>
        <mxCell id="100" value="Term 1 - Week 2020.11.16" style="align=left;strokeColor=#CCCCCC;html=1;" parent="1" vertex="1">
          <mxGeometry x="430" y="250" width="187" height="20" as="geometry" />
        </mxCell>
        <mxCell id="2" value="Task Name" style="strokeWidth=1;fontStyle=0;html=1;" parent="1" vertex="1">
          <mxGeometry x="430" y="100" width="190" height="50" as="geometry" />
        </mxCell>
        <mxCell id="67c90442a009f359-289" value="Term 1 - Week 2020.11.23" style="align=left;strokeColor=#CCCCCC;html=1;" parent="1" vertex="1">
          <mxGeometry x="430" y="271.5" width="187" height="20" as="geometry" />
        </mxCell>
        <mxCell id="67c90442a009f359-291" value="" style="align=left;strokeColor=#CCCCCC;html=1;" parent="1" vertex="1">
          <mxGeometry x="620" y="150" width="1110" height="20" as="geometry" />
        </mxCell>
        <mxCell id="4" value="Starting &lt;br&gt;Project" style="strokeWidth=1;fontStyle=0;html=1;fillColor=#ffe6cc;strokeColor=#d79b00;" parent="1" vertex="1">
          <mxGeometry x="617" y="100" width="83" height="50" as="geometry" />
        </mxCell>
        <mxCell id="67c90442a009f359-278" value="Gathering&amp;nbsp;&lt;br&gt;Reqirements" style="strokeWidth=1;fontStyle=0;html=1;fillColor=#ffe6cc;strokeColor=#d79b00;" parent="1" vertex="1">
          <mxGeometry x="700" y="100" width="70" height="50" as="geometry" />
        </mxCell>
        <mxCell id="67c90442a009f359-279" value="Understanding&lt;br&gt;Requirements" style="strokeWidth=1;fontStyle=0;html=1;fillColor=#ffe6cc;strokeColor=#d79b00;" parent="1" vertex="1">
          <mxGeometry x="770" y="100" width="83" height="50" as="geometry" />
        </mxCell>
        <mxCell id="67c90442a009f359-280" value="Senarios&amp;nbsp;&lt;br&gt;Prototypes" style="strokeWidth=1;fontStyle=0;html=1;fillColor=#ffe6cc;strokeColor=#d79b00;" parent="1" vertex="1">
          <mxGeometry x="853" y="100" width="87" height="50" as="geometry" />
        </mxCell>
        <mxCell id="67c90442a009f359-281" value="Research&lt;br&gt;Discussion" style="strokeWidth=1;fontStyle=0;html=1;fillColor=#d5e8d4;strokeColor=#82b366;" parent="1" vertex="1">
          <mxGeometry x="940" y="100" width="70" height="50" as="geometry" />
        </mxCell>
        <mxCell id="67c90442a009f359-282" value="Preparation&lt;br&gt;Allocate tasks" style="strokeWidth=1;fontStyle=0;html=1;fillColor=#d5e8d4;strokeColor=#82b366;" parent="1" vertex="1">
          <mxGeometry x="1010" y="100" width="90" height="50" as="geometry" />
        </mxCell>
        <mxCell id="67c90442a009f359-283" value="Learn to &lt;br&gt;use Tools" style="strokeWidth=1;fontStyle=0;html=1;fillColor=#d5e8d4;strokeColor=#82b366;" parent="1" vertex="1">
          <mxGeometry x="1100" y="100" width="70" height="50" as="geometry" />
        </mxCell>
        <mxCell id="67c90442a009f359-284" value="First&amp;nbsp;&lt;br&gt;Prototype" style="strokeWidth=1;fontStyle=0;html=1;fillColor=#dae8fc;strokeColor=#6c8ebf;" parent="1" vertex="1">
          <mxGeometry x="1170" y="100" width="70" height="50" as="geometry" />
        </mxCell>
        <mxCell id="67c90442a009f359-285" value="Implementation" style="strokeWidth=1;fontStyle=0;html=1;fillColor=#f8cecc;strokeColor=#b85450;" parent="1" vertex="1">
          <mxGeometry x="1330" y="100" width="200" height="50" as="geometry" />
        </mxCell>
        <mxCell id="67c90442a009f359-286" value="Testing" style="strokeWidth=1;fontStyle=0;html=1;fillColor=#f8cecc;strokeColor=#b85450;" parent="1" vertex="1">
          <mxGeometry x="1530" y="100" width="100" height="50" as="geometry" />
        </mxCell>
        <mxCell id="67c90442a009f359-287" value="Writing &lt;br&gt;Reports &lt;br&gt;Papers" style="strokeWidth=1;fontStyle=0;html=1;fillColor=#e1d5e7;strokeColor=#9673a6;" parent="1" vertex="1">
          <mxGeometry x="1630" y="100" width="100" height="50" as="geometry" />
        </mxCell>
        <mxCell id="67c90442a009f359-288" value="Review&amp;nbsp;on&amp;nbsp;&lt;br&gt;First Prototype" style="strokeWidth=1;fontStyle=0;html=1;fillColor=#dae8fc;strokeColor=#6c8ebf;" parent="1" vertex="1">
          <mxGeometry x="1240" y="100" width="90" height="50" as="geometry" />
        </mxCell>
        <mxCell id="67c90442a009f359-292" value="" style="align=left;strokeColor=#CCCCCC;html=1;" parent="1" vertex="1">
          <mxGeometry x="617" y="170" width="1113" height="20" as="geometry" />
        </mxCell>
        <mxCell id="67c90442a009f359-293" value="" style="align=left;strokeColor=#CCCCCC;html=1;" parent="1" vertex="1">
          <mxGeometry x="617" y="190" width="1113" height="20" as="geometry" />
        </mxCell>
        <mxCell id="67c90442a009f359-294" value="" style="align=left;strokeColor=#CCCCCC;html=1;" parent="1" vertex="1">
          <mxGeometry x="617" y="210" width="1113" height="20" as="geometry" />
        </mxCell>
        <mxCell id="67c90442a009f359-295" value="" style="align=left;strokeColor=#CCCCCC;html=1;" parent="1" vertex="1">
          <mxGeometry x="617" y="250" width="1113" height="21.5" as="geometry" />
        </mxCell>
        <mxCell id="67c90442a009f359-296" value="" style="align=left;strokeColor=#CCCCCC;html=1;" parent="1" vertex="1">
          <mxGeometry x="617" y="271.5" width="1113" height="24.65" as="geometry" />
        </mxCell>
        <mxCell id="67c90442a009f359-297" value="" style="align=left;strokeColor=#CCCCCC;html=1;" parent="1" vertex="1">
          <mxGeometry x="617" y="291.5" width="1113" height="20" as="geometry" />
        </mxCell>
        <mxCell id="67c90442a009f359-298" value="" style="align=left;strokeColor=#CCCCCC;html=1;" parent="1" vertex="1">
          <mxGeometry x="617" y="311.5" width="1113" height="20" as="geometry" />
        </mxCell>
        <mxCell id="67c90442a009f359-299" value="" style="whiteSpace=wrap;html=1;strokeWidth=2;fillColor=#CCCCCC;gradientColor=none;fontSize=14;align=center;strokeColor=#999999;" parent="1" vertex="1">
          <mxGeometry x="617" y="150" width="83" height="20" as="geometry" />
        </mxCell>
        <mxCell id="67c90442a009f359-300" value="" style="whiteSpace=wrap;html=1;strokeWidth=2;fillColor=#CCCCCC;gradientColor=none;fontSize=14;align=center;strokeColor=#999999;" parent="1" vertex="1">
          <mxGeometry x="700" y="170" width="73" height="20" as="geometry" />
        </mxCell>
        <mxCell id="67c90442a009f359-301" value="" style="whiteSpace=wrap;html=1;strokeWidth=2;fillColor=#CCCCCC;gradientColor=none;fontSize=14;align=center;strokeColor=#999999;" parent="1" vertex="1">
          <mxGeometry x="773" y="190" width="80" height="20" as="geometry" />
        </mxCell>
        <mxCell id="67c90442a009f359-302" value="" style="whiteSpace=wrap;html=1;strokeWidth=2;fillColor=#CCCCCC;gradientColor=none;fontSize=14;align=center;strokeColor=#999999;" parent="1" vertex="1">
          <mxGeometry x="773" y="210" width="167" height="20" as="geometry" />
        </mxCell>
        <mxCell id="67c90442a009f359-304" value="" style="whiteSpace=wrap;html=1;strokeWidth=2;fillColor=#CCCCCC;gradientColor=none;fontSize=14;align=center;strokeColor=#999999;" parent="1" vertex="1">
          <mxGeometry x="940" y="250" width="230" height="20" as="geometry" />
        </mxCell>
        <mxCell id="67c90442a009f359-305" value="" style="whiteSpace=wrap;html=1;strokeWidth=2;fillColor=#CCCCCC;gradientColor=none;fontSize=14;align=center;strokeColor=#999999;" parent="1" vertex="1">
          <mxGeometry x="940" y="271.5" width="230" height="20" as="geometry" />
        </mxCell>
        <mxCell id="67c90442a009f359-306" value="" style="whiteSpace=wrap;html=1;strokeWidth=2;fillColor=#CCCCCC;gradientColor=none;fontSize=14;align=center;strokeColor=#999999;" parent="1" vertex="1">
          <mxGeometry x="940" y="291.5" width="230" height="20" as="geometry" />
        </mxCell>
        <mxCell id="lhv2zUj87QsJ1FvnrkPh-102" value="Term 1 - Week 2020.11.30" style="align=left;strokeColor=#CCCCCC;html=1;" vertex="1" parent="1">
          <mxGeometry x="430" y="291.5" width="187" height="20" as="geometry" />
        </mxCell>
        <mxCell id="lhv2zUj87QsJ1FvnrkPh-103" value="Term 1 - Week 2020.12.5" style="align=left;strokeColor=#CCCCCC;html=1;" vertex="1" parent="1">
          <mxGeometry x="430" y="311.5" width="187" height="20" as="geometry" />
        </mxCell>
        <mxCell id="lhv2zUj87QsJ1FvnrkPh-104" value="" style="whiteSpace=wrap;html=1;strokeWidth=2;fillColor=#CCCCCC;gradientColor=none;fontSize=14;align=center;strokeColor=#999999;" vertex="1" parent="1">
          <mxGeometry x="940" y="311.5" width="230" height="20" as="geometry" />
        </mxCell>
        <mxCell id="lhv2zUj87QsJ1FvnrkPh-105" value="" style="align=left;strokeColor=#6c8ebf;html=1;fillColor=#dae8fc;" vertex="1" parent="1">
          <mxGeometry x="430" y="331.5" width="187" height="20" as="geometry" />
        </mxCell>
        <mxCell id="lhv2zUj87QsJ1FvnrkPh-106" value="" style="align=left;strokeColor=#6c8ebf;html=1;fillColor=#dae8fc;" vertex="1" parent="1">
          <mxGeometry x="617" y="331.5" width="1113" height="20" as="geometry" />
        </mxCell>
        <mxCell id="lhv2zUj87QsJ1FvnrkPh-107" value="Christmas Holidays" style="align=left;strokeColor=#CCCCCC;html=1;" vertex="1" parent="1">
          <mxGeometry x="430" y="351.5" width="187" height="20" as="geometry" />
        </mxCell>
        <mxCell id="lhv2zUj87QsJ1FvnrkPh-108" value="" style="align=left;strokeColor=#CCCCCC;html=1;" vertex="1" parent="1">
          <mxGeometry x="617" y="351.5" width="1113" height="20" as="geometry" />
        </mxCell>
        <mxCell id="lhv2zUj87QsJ1FvnrkPh-109" value="" style="whiteSpace=wrap;html=1;strokeWidth=2;fillColor=#CCCCCC;gradientColor=none;fontSize=14;align=center;strokeColor=#999999;" vertex="1" parent="1">
          <mxGeometry x="1170" y="351.5" width="70" height="20" as="geometry" />
        </mxCell>
        <mxCell id="lhv2zUj87QsJ1FvnrkPh-110" value="Term 2 - Week 2021.1.11" style="align=left;strokeColor=#CCCCCC;html=1;" vertex="1" parent="1">
          <mxGeometry x="430" y="371.5" width="187" height="20" as="geometry" />
        </mxCell>
        <mxCell id="lhv2zUj87QsJ1FvnrkPh-111" value="Term 2 - Week 2021.1.18" style="align=left;strokeColor=#CCCCCC;html=1;" vertex="1" parent="1">
          <mxGeometry x="430" y="391.5" width="187" height="20" as="geometry" />
        </mxCell>
        <mxCell id="lhv2zUj87QsJ1FvnrkPh-112" value="Term 2 - Week 2021.1.25" style="align=left;strokeColor=#CCCCCC;html=1;" vertex="1" parent="1">
          <mxGeometry x="430" y="411.5" width="187" height="20" as="geometry" />
        </mxCell>
        <mxCell id="lhv2zUj87QsJ1FvnrkPh-113" value="" style="align=left;strokeColor=#CCCCCC;html=1;" vertex="1" parent="1">
          <mxGeometry x="617" y="371.5" width="1113" height="20" as="geometry" />
        </mxCell>
        <mxCell id="lhv2zUj87QsJ1FvnrkPh-114" value="" style="align=left;strokeColor=#CCCCCC;html=1;" vertex="1" parent="1">
          <mxGeometry x="617" y="391.5" width="1113" height="20" as="geometry" />
        </mxCell>
        <mxCell id="lhv2zUj87QsJ1FvnrkPh-115" value="" style="align=left;strokeColor=#CCCCCC;html=1;" vertex="1" parent="1">
          <mxGeometry x="617" y="411.5" width="1113" height="20" as="geometry" />
        </mxCell>
        <mxCell id="lhv2zUj87QsJ1FvnrkPh-116" value="" style="whiteSpace=wrap;html=1;strokeWidth=2;fillColor=#CCCCCC;gradientColor=none;fontSize=14;align=center;strokeColor=#999999;" vertex="1" parent="1">
          <mxGeometry x="1240" y="391.5" width="90" height="20" as="geometry" />
        </mxCell>
        <mxCell id="lhv2zUj87QsJ1FvnrkPh-117" value="" style="whiteSpace=wrap;html=1;strokeWidth=2;fillColor=#CCCCCC;gradientColor=none;fontSize=14;align=center;strokeColor=#999999;" vertex="1" parent="1">
          <mxGeometry x="1170" y="371.5" width="70" height="20" as="geometry" />
        </mxCell>
        <mxCell id="lhv2zUj87QsJ1FvnrkPh-118" value="" style="whiteSpace=wrap;html=1;strokeWidth=2;fillColor=#CCCCCC;gradientColor=none;fontSize=14;align=center;strokeColor=#999999;" vertex="1" parent="1">
          <mxGeometry x="1240" y="411.5" width="300" height="20" as="geometry" />
        </mxCell>
        <mxCell id="lhv2zUj87QsJ1FvnrkPh-119" value="Term 2 - Week 2021.2.1" style="align=left;strokeColor=#CCCCCC;html=1;" vertex="1" parent="1">
          <mxGeometry x="430" y="431.5" width="187" height="20" as="geometry" />
        </mxCell>
        <mxCell id="lhv2zUj87QsJ1FvnrkPh-120" value="Half Term" style="align=left;strokeColor=#6c8ebf;html=1;fillColor=#dae8fc;" vertex="1" parent="1">
          <mxGeometry x="430" y="230" width="187" height="20" as="geometry" />
        </mxCell>
        <mxCell id="lhv2zUj87QsJ1FvnrkPh-121" value="" style="align=left;strokeColor=#6c8ebf;html=1;fillColor=#dae8fc;" vertex="1" parent="1">
          <mxGeometry x="617" y="230" width="1113" height="20" as="geometry" />
        </mxCell>
        <mxCell id="lhv2zUj87QsJ1FvnrkPh-122" value="Term 2 - Week 2021.2.8" style="align=left;strokeColor=#CCCCCC;html=1;" vertex="1" parent="1">
          <mxGeometry x="430" y="451.5" width="187" height="20" as="geometry" />
        </mxCell>
        <mxCell id="lhv2zUj87QsJ1FvnrkPh-124" value="" style="align=left;strokeColor=#CCCCCC;html=1;" vertex="1" parent="1">
          <mxGeometry x="617" y="431.5" width="1113" height="20" as="geometry" />
        </mxCell>
        <mxCell id="lhv2zUj87QsJ1FvnrkPh-125" value="" style="align=left;strokeColor=#CCCCCC;html=1;" vertex="1" parent="1">
          <mxGeometry x="617" y="451.5" width="1113" height="20" as="geometry" />
        </mxCell>
        <mxCell id="lhv2zUj87QsJ1FvnrkPh-126" value="" style="align=left;strokeColor=#6c8ebf;html=1;fillColor=#dae8fc;" vertex="1" parent="1">
          <mxGeometry x="430" y="471.5" width="187" height="20" as="geometry" />
        </mxCell>
        <mxCell id="lhv2zUj87QsJ1FvnrkPh-127" value="" style="align=left;strokeColor=#6c8ebf;html=1;fillColor=#dae8fc;" vertex="1" parent="1">
          <mxGeometry x="617" y="471.5" width="1113" height="20" as="geometry" />
        </mxCell>
        <mxCell id="lhv2zUj87QsJ1FvnrkPh-128" value="Term 2 - Week 2021.2.22" style="align=left;strokeColor=#CCCCCC;html=1;" vertex="1" parent="1">
          <mxGeometry x="430" y="491.5" width="187" height="20" as="geometry" />
        </mxCell>
        <mxCell id="lhv2zUj87QsJ1FvnrkPh-130" value="Term 2 - Week 2021.3.1" style="align=left;strokeColor=#CCCCCC;html=1;" vertex="1" parent="1">
          <mxGeometry x="430" y="511.5" width="187" height="20" as="geometry" />
        </mxCell>
        <mxCell id="lhv2zUj87QsJ1FvnrkPh-131" value="Term 2 - Week 2021.3.8" style="align=left;strokeColor=#CCCCCC;html=1;" vertex="1" parent="1">
          <mxGeometry x="430" y="531.5" width="187" height="20" as="geometry" />
        </mxCell>
        <mxCell id="lhv2zUj87QsJ1FvnrkPh-132" value="Term 2 - Week 2021.3.15" style="align=left;strokeColor=#CCCCCC;html=1;" vertex="1" parent="1">
          <mxGeometry x="430" y="551.5" width="187" height="20" as="geometry" />
        </mxCell>
        <mxCell id="lhv2zUj87QsJ1FvnrkPh-133" value="Term 2 - Week 2021.3.22" style="align=left;strokeColor=#CCCCCC;html=1;" vertex="1" parent="1">
          <mxGeometry x="430" y="571.5" width="187" height="20" as="geometry" />
        </mxCell>
        <mxCell id="lhv2zUj87QsJ1FvnrkPh-134" value="" style="align=left;strokeColor=#CCCCCC;html=1;" vertex="1" parent="1">
          <mxGeometry x="617" y="491.5" width="1113" height="20" as="geometry" />
        </mxCell>
        <mxCell id="lhv2zUj87QsJ1FvnrkPh-136" value="" style="align=left;strokeColor=#CCCCCC;html=1;" vertex="1" parent="1">
          <mxGeometry x="617" y="511.5" width="1113" height="20" as="geometry" />
        </mxCell>
        <mxCell id="lhv2zUj87QsJ1FvnrkPh-137" value="" style="align=left;strokeColor=#CCCCCC;html=1;" vertex="1" parent="1">
          <mxGeometry x="617" y="531.5" width="1113" height="20" as="geometry" />
        </mxCell>
        <mxCell id="lhv2zUj87QsJ1FvnrkPh-138" value="" style="align=left;strokeColor=#CCCCCC;html=1;" vertex="1" parent="1">
          <mxGeometry x="617" y="551.5" width="1113" height="20" as="geometry" />
        </mxCell>
        <mxCell id="lhv2zUj87QsJ1FvnrkPh-139" value="" style="align=left;strokeColor=#CCCCCC;html=1;" vertex="1" parent="1">
          <mxGeometry x="617" y="571.5" width="1113" height="20" as="geometry" />
        </mxCell>
        <mxCell id="lhv2zUj87QsJ1FvnrkPh-140" value="" style="whiteSpace=wrap;html=1;strokeWidth=2;fillColor=#CCCCCC;gradientColor=none;fontSize=14;align=center;strokeColor=#999999;" vertex="1" parent="1">
          <mxGeometry x="1330" y="431.5" width="210" height="20" as="geometry" />
        </mxCell>
        <mxCell id="lhv2zUj87QsJ1FvnrkPh-141" value="" style="whiteSpace=wrap;html=1;strokeWidth=2;fillColor=#CCCCCC;gradientColor=none;fontSize=14;align=center;strokeColor=#999999;" vertex="1" parent="1">
          <mxGeometry x="1330" y="451.5" width="210" height="20" as="geometry" />
        </mxCell>
        <mxCell id="lhv2zUj87QsJ1FvnrkPh-142" value="" style="whiteSpace=wrap;html=1;strokeWidth=2;fillColor=#CCCCCC;gradientColor=none;fontSize=14;align=center;strokeColor=#999999;" vertex="1" parent="1">
          <mxGeometry x="1330" y="491.5" width="300" height="20" as="geometry" />
        </mxCell>
        <mxCell id="lhv2zUj87QsJ1FvnrkPh-144" value="" style="whiteSpace=wrap;html=1;strokeWidth=2;fillColor=#CCCCCC;gradientColor=none;fontSize=14;align=center;strokeColor=#999999;" vertex="1" parent="1">
          <mxGeometry x="1330" y="511.5" width="400" height="20" as="geometry" />
        </mxCell>
        <mxCell id="lhv2zUj87QsJ1FvnrkPh-145" value="" style="whiteSpace=wrap;html=1;strokeWidth=2;fillColor=#CCCCCC;gradientColor=none;fontSize=14;align=center;strokeColor=#999999;" vertex="1" parent="1">
          <mxGeometry x="1330" y="531.5" width="400" height="20" as="geometry" />
        </mxCell>
        <mxCell id="lhv2zUj87QsJ1FvnrkPh-146" value="" style="whiteSpace=wrap;html=1;strokeWidth=2;fillColor=#CCCCCC;gradientColor=none;fontSize=14;align=center;strokeColor=#999999;" vertex="1" parent="1">
          <mxGeometry x="1330" y="551.5" width="400" height="20" as="geometry" />
        </mxCell>
        <mxCell id="lhv2zUj87QsJ1FvnrkPh-147" value="" style="whiteSpace=wrap;html=1;strokeWidth=2;fillColor=#CCCCCC;gradientColor=none;fontSize=14;align=center;strokeColor=#999999;" vertex="1" parent="1">
          <mxGeometry x="1540" y="571.5" width="190" height="20" as="geometry" />
        </mxCell>
      </root>
    </mxGraphModel>
  </diagram>
</mxfile>
